<svg viewBox="0 0 500 500" xmlns="http://www.w3.org/2000/svg" xmlns:bx="https://boxy-svg.com">
  <defs>
    <bx:grid x="-128.875" y="-176.648" width="100" height="82.224"></bx:grid>
  </defs>
  <polygon style="fill: rgb(216, 216, 216); stroke: rgb(0, 0, 0);" points="671.543 316.696 670.292 116.696 770.292 16.696 870.292 116.696 770.292 216.696 970.292 316.696"></polygon>
  <path d="M 670.975 119.162 L 670.292 -80.042 L 870.292 -80.042 L 870.292 119.958 L 770.292 19.958 L 670.975 119.162 Z" style="fill: rgb(216, 216, 216); stroke: rgb(0, 0, 0);"></path>
  <polygon style="fill: rgb(216, 216, 216); stroke: rgb(0, 0, 0);" points="871.126 -80.042 871.126 119.958 771.126 219.958 1071.125 219.958 1071.125 -80.042"></polygon>
  <g transform="matrix(0.442951, 0, 0, 0.438729, -65.77076, 18.531572)" style="">
    <polygon style="stroke: rgb(0, 0, 0); fill: rgb(240, 212, 35);" points="0.512 101.738 300 100 300 200 200 200"></polygon>
    <polygon style="stroke: rgb(0, 0, 0); fill: rgb(77, 86, 191);" points="100 200 100 400 0 500 300 500 300 200"></polygon>
    <polygon style="stroke: rgb(0, 0, 0); fill: rgb(50, 45, 45);" points="301.251 200 300 0 400 -100 500 0 400 100 600 200"></polygon>
    <polygon style="stroke: rgb(0, 0, 0); fill: rgb(214, 21, 21);" points="300.683 399.204 300 200 500 200 500 400 400 300"></polygon>
    <polygon style="stroke: rgb(0, 0, 0); fill: rgb(240, 212, 35);" points="399.988 100.533 699.476 98.795 699.476 198.795 599.476 198.795"></polygon>
    <polygon style="stroke: rgb(0, 0, 0); fill: rgb(77, 86, 191);" points="499.476 198.795 499.476 398.795 399.476 498.795 699.476 498.795 699.476 198.795"></polygon>
    <polygon style="stroke: rgb(0, 0, 0); fill: rgb(50, 45, 45);" points="700.727 198.795 699.476 -1.205 799.476 -101.205 899.476 -1.205 799.476 98.795 999.476 198.795"></polygon>
    <polygon style="stroke: rgb(0, 0, 0); fill: rgb(214, 21, 21);" points="700.159 397.999 699.476 198.795 899.476 198.795 899.476 398.795 799.476 298.795"></polygon>
    <polygon style="stroke: rgb(0, 0, 0); fill: rgb(240, 212, 35);" points="0.512 501.649 300 499.911 300 599.911 200 599.911"></polygon>
    <polygon style="stroke: rgb(0, 0, 0); fill: rgb(77, 86, 191);" points="100 599.911 100 799.911 0 899.911 300 899.911 300 599.911"></polygon>
    <polygon style="stroke: rgb(0, 0, 0); fill: rgb(50, 45, 45);" points="301.251 599.911 300 399.911 400 299.911 500 399.911 400 499.911 600 599.911"></polygon>
    <polygon style="stroke: rgb(0, 0, 0); fill: rgb(214, 21, 21);" points="300.683 799.115 300 599.911 500 599.911 500 799.911 400 699.911"></polygon>
    <polygon style="stroke: rgb(0, 0, 0); fill: rgb(240, 212, 35);" points="399.988 499.623 699.476 497.885 699.476 597.885 599.476 597.885"></polygon>
    <polygon style="stroke: rgb(0, 0, 0); fill: rgb(77, 86, 191);" points="499.476 597.885 499.476 797.885 399.476 897.885 699.476 897.885 699.476 597.885"></polygon>
    <polygon style="stroke: rgb(0, 0, 0); fill: rgb(50, 45, 45);" points="700.727 597.885 699.476 397.885 799.476 297.885 899.476 397.885 799.476 497.885 999.476 597.885"></polygon>
    <polygon style="stroke: rgb(0, 0, 0); fill: rgb(214, 21, 21);" points="700.159 797.089 699.476 597.885 899.476 597.885 899.476 797.885 799.476 697.885"></polygon>
    <polygon style="stroke: rgb(0, 0, 0); fill: rgb(240, 212, 35);" points="797.281 100.533 1096.769 98.795 1096.769 198.795 996.769 198.795"></polygon>
    <polygon style="stroke: rgb(0, 0, 0); fill: rgb(77, 86, 191);" points="896.769 198.795 896.769 398.795 796.769 498.795 1096.769 498.795 1096.769 198.795"></polygon>
    <polygon style="stroke: rgb(0, 0, 0); fill: rgb(50, 45, 45);" points="1098.02 198.795 1096.769 -1.205 1196.769 -101.205 1296.769 -1.205 1196.769 98.795 1396.769 198.795"></polygon>
    <polygon style="stroke: rgb(0, 0, 0); fill: rgb(214, 21, 21);" points="1097.452 397.999 1096.769 198.795 1296.769 198.795 1296.769 398.795 1196.769 298.795"></polygon>
    <polygon style="stroke: rgb(0, 0, 0); fill: rgb(240, 212, 35);" points="797.281 -296.531 1096.769 -298.269 1096.769 -198.269 996.769 -198.269"></polygon>
    <polygon style="stroke: rgb(0, 0, 0); fill: rgb(77, 86, 191);" points="896.769 -198.269 896.769 1.731 796.769 101.731 1096.769 101.731 1096.769 -198.269"></polygon>
    <polygon style="stroke: rgb(0, 0, 0); fill: rgb(50, 45, 45);" points="1098.02 -198.269 1096.769 -398.269 1196.769 -498.269 1296.769 -398.269 1196.769 -298.269 1396.769 -198.269"></polygon>
    <polygon style="stroke: rgb(0, 0, 0); fill: rgb(214, 21, 21);" points="1097.452 0.935 1096.769 -198.269 1296.769 -198.269 1296.769 1.731 1196.769 -98.269"></polygon>
    <polygon style="stroke: rgb(0, 0, 0); fill: rgb(240, 212, 35);" points="793.77 497.837 1093.258 496.099 1093.258 596.099 993.258 596.099"></polygon>
    <polygon style="stroke: rgb(0, 0, 0); fill: rgb(77, 86, 191);" points="893.258 596.099 893.258 796.099 793.258 896.099 1093.258 896.099 1093.258 596.099"></polygon>
    <polygon style="stroke: rgb(0, 0, 0); fill: rgb(50, 45, 45);" points="1094.509 596.099 1093.258 396.099 1193.258 296.099 1293.258 396.099 1193.258 496.099 1393.258 596.099"></polygon>
    <polygon style="stroke: rgb(0, 0, 0); fill: rgb(214, 21, 21);" points="1093.941 795.303 1093.258 596.099 1293.258 596.099 1293.258 796.099 1193.258 696.099"></polygon>
  </g>
  <polygon style="fill: rgb(216, 216, 216); stroke: rgb(0, 0, 0);" points="757.462 216.741 1056.95 215.003 1056.95 315.003 956.95 315.003"></polygon>
</svg>