<svg xmlns="http://www.w3.org/2000/svg" width="256" height="256" viewBox="0 0 100 100"><rect width="100" height="100" rx="20" fill="#7d6ee7"/><path fill="#fff" d="M44.15 50q0 3.9-1.1 6.87-1.1 2.98-3.05 4.95-1.95 1.98-4.6 3-2.65 1.03-5.75 1.03t-5.75-1.03q-2.65-1.02-4.6-3-1.95-1.97-3.05-4.95-1.1-2.97-1.1-6.87t1.12-6.85q1.13-2.95 3.08-4.95 1.95-2 4.6-3.03 2.65-1.02 5.7-1.02 3.05 0 5.7 1.02 2.65 1.03 4.6 3.03 1.95 2 3.08 4.95 1.12 2.95 1.12 6.85zM40 50q0-6-2.83-9.2-2.82-3.2-7.52-3.2-2.35 0-4.25.82-1.9.83-3.25 2.4-1.35 1.58-2.08 3.88-.72 2.3-.72 5.3 0 6 2.8 9.2 2.8 3.2 7.5 3.2 4.75 0 7.55-3.2T40 50zm24.85-7.65q.4-.2.98-.35.57-.15 1.27-.15 2.1 0 2.55 1.3l1.7 5.1q.8 2.4 1.55 4.62.75 2.23 1.45 4.38t1.4 4.45h.2q.7-3.35 1.4-6.58.7-3.22 1.35-6.5.65-3.27 1.25-6.65.6-3.37 1.15-7.12.7-.35 1.7-.35.95 0 1.5.42.55.43.55 1.28 0 .95-.27 2.9-.28 1.95-.75 4.47-.48 2.53-1.1 5.45-.63 2.93-1.33 5.75-.7 2.83-1.4 5.43-.7 2.6-1.35 4.45-.45.25-1.15.47-.7.23-1.6.23-1.1 0-1.85-.35t-1-.95q-.55-1.3-1.25-3.28-.7-1.97-1.47-4.35-.78-2.37-1.58-4.95-.8-2.57-1.55-5.12-.75 2.5-1.55 5.15-.8 2.65-1.57 5.12-.78 2.48-1.53 4.58t-1.35 3.5q-.4.25-1.1.45-.7.2-1.6.2-1.15 0-1.85-.38-.7-.37-.95-.92-.45-1.05-1.02-3-.58-1.95-1.2-4.43-.63-2.47-1.3-5.32-.68-2.85-1.3-5.68-.63-2.82-1.15-5.45-.53-2.62-.88-4.72.35-.35.95-.65.6-.3 1.3-.3 1.75 0 2.1 1.85.65 3.15 1.25 6.07.6 2.93 1.23 5.95.62 3.03 1.32 6.28.7 3.25 1.55 7.05h.2q.7-2.25 1.35-4.28.65-2.02 1.35-4.22.7-2.2 1.53-4.8.82-2.6 1.87-6.05z"/></svg>